<svg xmlns="http://www.w3.org/2000/svg" viewBox="0 0 100 120">
  <path
    d="M50,6 L14,17 L14,58 C14,89 33,105 50,116 C67,105 86,89 86,58 L86,17 Z"
    fill="#050505"
    stroke="#D4AF37"
    stroke-width="2"
    stroke-linejoin="round"
  />
  <path
    d="M22,32 L22,88 C40,88 55,76 55,60 C55,44 40,32 22,32 Z M50,32 L58,32 L58,88 L50,88 Z M58,32 C73,32 81,37 81,44 C81,52 72,57 58,57 Z M58,58 C78,58 88,66 88,75 C88,84 75,88 58,88 Z"
    fill="#D4AF37"
  />
  <path d="M40,22 L43,11 L50,17 L57,11 L60,22 Z" fill="#D4AF37" />
</svg>
